<svg xmlns="http://www.w3.org/2000/svg" xmlns:xlink="http://www.w3.org/1999/xlink" fill="none" version="1.1" width="40" height="31.781463623046875" viewBox="0 0 40 31.781463623046875"><defs><linearGradient x1="0" y1="0.36414414644241333" x2="0.9940920431604645" y2="0.3693831887298984" id="master_svg0_1_318"><stop offset="5.000000819563866%" stop-color="#46E6FF" stop-opacity="1"/><stop offset="23.84573221206665%" stop-color="#15A7F0" stop-opacity="0"/><stop offset="73.9153265953064%" stop-color="#15A7F0" stop-opacity="0"/><stop offset="100%" stop-color="#27E9FF" stop-opacity="1"/></linearGradient><linearGradient x1="0.5" y1="0" x2="0.5" y2="1" id="master_svg1_1_286"><stop offset="0%" stop-color="#02726B" stop-opacity="1"/><stop offset="94.28571462631226%" stop-color="#0C6F7E" stop-opacity="1"/></linearGradient><radialGradient cx="0" cy="0" r="1" gradientUnits="userSpaceOnUse" id="master_svg2_1_287" gradientTransform="translate(20.11835765838623 21.340689182281494) rotate(90) scale(7.456381320953369 15.147929191589354)"><stop offset="9.285714477300644%" stop-color="#00433C" stop-opacity="1"/><stop offset="100%" stop-color="#000000" stop-opacity="0"/></radialGradient><filter id="master_svg3_1_375" filterUnits="objectBoundingBox" color-interpolation-filters="sRGB" x="-0.20538192952485101" y="-0.3576354793212197" width="1.410763859049702" height="1.8344827850828458"><feFlood flood-opacity="0" result="BackgroundImageFix"/><feColorMatrix in="SourceAlpha" type="matrix" values="0 0 0 0 0 0 0 0 0 0 0 0 0 0 0 0 0 0 127 0"/><feOffset dy="0.8888888359069824" dx="0"/><feGaussianBlur stdDeviation="1.5555554628372192"/><feColorMatrix type="matrix" values="0 0 0 0 0 0 0 0 0 0.4616071581840515 0 0 0 0 0.8392857313156128 0 0 0 0.6600000262260437 0"/><feBlend mode="normal" in2="BackgroundImageFix" result="effect1_dropShadow"/><feBlend mode="normal" in="SourceGraphic" in2="effect1_dropShadow" result="shape"/></filter><linearGradient x1="0.5" y1="0" x2="0.5" y2="1" id="master_svg4_1_305"><stop offset="0%" stop-color="#026E72" stop-opacity="0.36000001430511475"/><stop offset="93.57143044471741%" stop-color="#005D5D" stop-opacity="1"/></linearGradient><radialGradient cx="0" cy="0" r="1" gradientUnits="userSpaceOnUse" id="master_svg5_1_306" gradientTransform="translate(20.11835765838623 18.769522190093994) rotate(90) scale(7.456381320953369 15.147929191589354)"><stop offset="9.285714477300644%" stop-color="#00433C" stop-opacity="1"/><stop offset="100%" stop-color="#000000" stop-opacity="0"/></radialGradient><linearGradient x1="0.5" y1="0" x2="0.5" y2="1" id="master_svg6_1_308"><stop offset="25.714287161827087%" stop-color="#15E9F0" stop-opacity="0"/><stop offset="97.85714149475098%" stop-color="#15E1F0" stop-opacity="1"/></linearGradient><radialGradient cx="0" cy="0" r="1" gradientUnits="userSpaceOnUse" id="master_svg7_1_309" gradientTransform="translate(19.733884022005384 25.950780493442835) rotate(92.64324029786103) scale(3.4634279683580296 9.056165622229814)"><stop offset="0%" stop-color="#A0FFF9" stop-opacity="1"/><stop offset="99.28571581840515%" stop-color="#236B9E" stop-opacity="0"/></radialGradient><filter id="master_svg8_1_362" filterUnits="objectBoundingBox" color-interpolation-filters="sRGB" x="-0.2922352591616056" y="-0.2777777987635795" width="1.5844705183232113" height="1.555555597527159"><feFlood flood-opacity="0" result="BackgroundImageFix"/><feBlend mode="normal" in="SourceGraphic" in2="BackgroundImageFix" result="shape"/><feGaussianBlur stdDeviation="0.13149245083332062" result="effect1_foregroundBlur"/></filter><filter id="master_svg9_1_365" filterUnits="objectBoundingBox" color-interpolation-filters="sRGB" x="-0.2922352591616056" y="-0.2777777987635795" width="1.5844705183232113" height="1.555555597527159"><feFlood flood-opacity="0" result="BackgroundImageFix"/><feBlend mode="normal" in="SourceGraphic" in2="BackgroundImageFix" result="shape"/><feGaussianBlur stdDeviation="0.13149245083332062" result="effect1_foregroundBlur"/></filter><linearGradient x1="0.5" y1="0" x2="0.5" y2="1" id="master_svga_1_293"><stop offset="0%" stop-color="#109DB9" stop-opacity="0"/><stop offset="98.57142567634583%" stop-color="#04848D" stop-opacity="0.7699999809265137"/></linearGradient><linearGradient x1="0.5" y1="0" x2="0.5" y2="1" id="master_svgb_1_279"><stop offset="4.285714402794838%" stop-color="#20BBA1" stop-opacity="0"/><stop offset="98.57142567634583%" stop-color="#01EDE5" stop-opacity="1"/></linearGradient><linearGradient x1="0.5" y1="0" x2="0.5" y2="1" id="master_svgc_1_279"><stop offset="4.285714402794838%" stop-color="#20BBA1" stop-opacity="0"/><stop offset="98.57142567634583%" stop-color="#01EDE5" stop-opacity="1"/></linearGradient><filter id="master_svgd_1_363" filterUnits="objectBoundingBox" color-interpolation-filters="sRGB" x="0" y="0" width="1" height="1"><feFlood flood-opacity="0" result="BackgroundImageFix"/><feBlend mode="normal" in="SourceGraphic" in2="BackgroundImageFix" result="shape"/><feColorMatrix in="SourceAlpha" type="matrix" result="hardAlpha" values="0 0 0 0 0 0 0 0 0 0 0 0 0 0 0 0 0 0 127 0"/><feOffset dy="-0.26298490166664124" dx="0"/><feGaussianBlur stdDeviation="0.9204471707344055"/><feComposite in2="hardAlpha" operator="arithmetic" k2="-1" k3="1"/><feColorMatrix type="matrix" values="0 0 0 0 0.01568627543747425 0 0 0 0 0.46666666865348816 0 0 0 0 0.686274528503418 0 0 0 0.5 0"/><feBlend mode="normal" in2="shape" result="effect1_innerShadow"/></filter><linearGradient x1="0.5" y1="0" x2="0.5" y2="1" id="master_svge_1_286"><stop offset="0%" stop-color="#02726B" stop-opacity="1"/><stop offset="94.28571462631226%" stop-color="#0C6F7E" stop-opacity="1"/></linearGradient><radialGradient cx="0" cy="0" r="1" gradientUnits="userSpaceOnUse" id="master_svgf_1_287" gradientTransform="translate(20.118388175964355 17.612489223480225) rotate(90) scale(5.270890712738037 10.65088939666748)"><stop offset="9.285714477300644%" stop-color="#00433C" stop-opacity="1"/><stop offset="100%" stop-color="#000000" stop-opacity="0"/></radialGradient><linearGradient x1="0.5" y1="0" x2="0.5" y2="1" id="master_svgg_1_267"><stop offset="53.57142686843872%" stop-color="#3EF8FD" stop-opacity="1"/><stop offset="100%" stop-color="#25878A" stop-opacity="1"/></linearGradient></defs><g><g style="opacity:0.5;"><path d="M20,27.511524365234376Q20.491,27.511524365234376,20.9814,27.502524365234375Q21.4717,27.493524365234375,21.9603,27.475624365234374Q22.4489,27.457624365234373,22.9346,27.430824365234376Q23.4203,27.403924365234374,23.9018,27.368224365234376Q24.3833,27.332524365234377,24.8596,27.288024365234374Q25.3359,27.243524365234375,25.8057,27.190424365234374Q26.2755,27.137324365234377,26.7378,27.075624365234376Q27.2001,27.013924365234374,27.6537,26.943924365234373Q28.1073,26.873824365234377,28.5511,26.795624365234374Q28.9949,26.717324365234376,29.4279,26.631024365234374Q29.8609,26.544724365234373,30.2821,26.450624365234376Q30.7032,26.356524365234375,31.1114,26.254824365234377Q31.5196,26.153124365234376,31.914,26.044124365234374Q32.3083,25.935124365234373,32.6879,25.818924365234373Q33.0674,25.702824365234378,33.4312,25.579924365234376Q33.795,25.457024365234375,34.1421,25.327524365234375Q34.4893,25.198124365234374,34.819,25.062524365234374Q35.1487,24.926924365234377,35.4602,24.785424365234377Q35.7717,24.643924365234376,36.0641,24.496824365234374Q36.3566,24.349824365234376,36.6294,24.197624365234375Q36.9022,24.045424365234375,37.1546,23.888424365234375Q37.407,23.731424365234375,37.6384,23.570024365234374Q37.8699,23.408624365234374,38.0798,23.243124365234372Q38.2897,23.077624365234374,38.4776,22.908524365234374Q38.6655,22.739424365234377,38.8309,22.567084365234376Q38.9963,22.394744365234374,39.1388,22.219574365234376Q39.2813,22.044414365234374,39.4006,21.866854365234374Q39.5199,21.689304365234374,39.6157,21.509774365234374Q39.7115,21.330244365234375,39.7835,21.149184365234376Q39.8556,20.968124365234374,39.9037,20.785954365234375Q39.9518,20.603794365234375,39.9759,20.420974365234375Q40,20.238144365234376,40,20.055104365234374Q40,19.872064365234376,39.9759,19.689234365234377Q39.9518,19.506414365234374,39.9037,19.324254365234374Q39.8556,19.142094365234374,39.7835,18.961024365234376Q39.7115,18.779964365234374,39.6157,18.600434365234374Q39.5199,18.420914365234374,39.4006,18.243354365234374Q39.2813,18.065794365234375,39.1388,17.890634365234376Q38.9963,17.715474365234375,38.8309,17.543124365234377Q38.6655,17.370784365234375,38.4776,17.201674365234375Q38.2897,17.032564365234375,38.0798,16.867094365234376Q37.8699,16.701624365234373,37.6384,16.540194365234374Q37.407,16.378764365234375,37.1546,16.221764365234375Q36.9022,16.064754365234375,36.6294,15.912564365234374Q36.3566,15.760364365234375,36.0641,15.613344365234376Q35.7717,15.466324365234374,35.4602,15.324824365234376Q35.1487,15.183334365234375,34.819,15.047704365234376Q34.4893,14.912074365234375,34.1421,14.782644365234376Q33.795,14.653214365234374,33.4312,14.530294365234376Q33.0674,14.407364365234375,32.6879,14.291244365234375Q32.3083,14.175124365234375,31.914,14.066084365234374Q31.5196,13.957044365234374,31.1114,13.855354365234374Q30.7032,13.753654365234375,30.2821,13.659554365234374Q29.8609,13.565450365234375,29.4279,13.479164365234375Q28.9949,13.392878365234376,28.5511,13.314616365234375Q28.1073,13.236355365234376,27.6537,13.166307365234374Q27.2001,13.096259365234374,26.7378,13.034594365234375Q26.2755,12.972928365234376,25.8057,12.919793365234375Q25.3359,12.866658365234375,24.8596,12.822182365234376Q24.3833,12.777706365234375,23.9018,12.741996365234375Q23.4203,12.706286365234375,22.9346,12.679428465234375Q22.4489,12.652570265234376,21.9603,12.634628865234374Q21.4717,12.616687465234374,20.9814,12.607705905234376Q20.491,12.598724365234375,20,12.598724365234375Q19.509,12.598724365234375,19.0186,12.607705905234376Q18.5283,12.616687465234374,18.0397,12.634628865234374Q17.551,12.652570265234376,17.0654,12.679428465234375Q16.5797,12.706286365234375,16.0982,12.741996365234375Q15.6167,12.777706365234375,15.1404,12.822182365234376Q14.6641,12.866658365234375,14.1943,12.919793365234375Q13.7245,12.972928365234376,13.2622,13.034594365234375Q12.7999,13.096259365234374,12.3463,13.166307365234374Q11.8927,13.236355365234376,11.4489,13.314616365234375Q11.0051,13.392878365234376,10.5721,13.479164365234375Q10.1391,13.565450365234375,9.71794,13.659554365234374Q9.29682,13.753654365234375,8.88859,13.855354365234374Q8.48036,13.957044365234374,8.08601,14.066084365234374Q7.69166,14.175124365234375,7.31213,14.291244365234375Q6.93261,14.407364365234375,6.56882,14.530294365234376Q6.20503,14.653214365234374,5.85786,14.782644365234376Q5.51069,14.912074365234375,5.18098,15.047704365234376Q4.85126,15.183334365234375,4.53979,15.324824365234376Q4.22832,15.466324365234374,3.93585,15.613344365234376Q3.64338,15.760364365234375,3.37061,15.912564365234374Q3.09784,16.064754365234375,2.84543,16.221764365234375Q2.59302,16.378764365234375,2.36157,16.540194365234374Q2.13013,16.701624365234373,1.92021,16.867094365234376Q1.7103,17.032564365234375,1.52241,17.201674365234375Q1.33452,17.370784365234375,1.16912,17.543124365234377Q1.00371,17.715474365234375,0.861193,17.890634365234376Q0.718671,18.065794365234375,0.599375,18.243354365234374Q0.480078,18.420914365234374,0.384294,18.600434365234374Q0.28851,18.779964365234374,0.21647,18.961024365234376Q0.144429,19.142094365234374,0.0963055,19.324254365234374Q0.0481817,19.506414365234374,0.0240909,19.689234365234377Q0,19.872064365234376,0,20.055104365234374Q0,20.238144365234376,0.0240909,20.420974365234375Q0.0481817,20.603794365234375,0.0963055,20.785954365234375Q0.144429,20.968124365234374,0.21647,21.149184365234376Q0.28851,21.330244365234375,0.384294,21.509774365234374Q0.480078,21.689304365234374,0.599375,21.866854365234374Q0.718671,22.044414365234374,0.861193,22.219574365234376Q1.00371,22.394734365234378,1.16912,22.567084365234376Q1.33452,22.739424365234377,1.52241,22.908524365234374Q1.7103,23.077624365234374,1.92021,23.243124365234372Q2.13013,23.408624365234374,2.36157,23.570024365234374Q2.59302,23.731424365234375,2.84543,23.888424365234375Q3.09784,24.045424365234375,3.37061,24.197624365234375Q3.64338,24.349824365234376,3.93585,24.496824365234374Q4.22832,24.643924365234376,4.53979,24.785424365234377Q4.85126,24.926924365234377,5.18098,25.062524365234374Q5.51069,25.198124365234374,5.85786,25.327524365234375Q6.20503,25.457024365234375,6.56882,25.579924365234376Q6.93261,25.702824365234378,7.31213,25.818924365234373Q7.69166,25.935124365234373,8.08601,26.044124365234374Q8.48036,26.153124365234376,8.88859,26.254824365234377Q9.29682,26.356524365234375,9.71794,26.450624365234376Q10.1391,26.544724365234373,10.5721,26.631024365234374Q11.0051,26.717324365234376,11.4489,26.795624365234374Q11.8927,26.873824365234377,12.3463,26.943924365234373Q12.7999,27.013924365234374,13.2622,27.075624365234376Q13.7245,27.137324365234377,14.1943,27.190424365234374Q14.6641,27.243524365234375,15.1404,27.288024365234374Q15.6167,27.332524365234377,16.0982,27.368224365234376Q16.5797,27.403924365234374,17.0654,27.430824365234376Q17.551,27.457624365234373,18.0397,27.475624365234374Q18.5283,27.493524365234375,19.0186,27.502524365234375Q19.509,27.511524365234376,20,27.511524365234376ZM33.9584,15.275484365234375Q39.474,17.331824365234375,39.474,20.055104365234374Q39.474,22.778424365234375,33.9584,24.834724365234376Q28.1894,26.985524365234376,20,26.985524365234376Q11.8106,26.985524365234376,6.0416,24.834724365234376Q0.525969,22.778424365234375,0.52597,20.055104365234374Q0.52597,17.331814365234376,6.0416,15.275484365234375Q11.8106,13.124693365234375,20,13.124694365234376Q28.1894,13.124693365234375,33.9584,15.275484365234375Z" fill-rule="evenodd" fill="url(#master_svg0_1_318)" fill-opacity="1"/></g><g style="opacity:0.30000001192092896;"><ellipse cx="20.11835765838623" cy="21.340689182281494" rx="15.147929191589355" ry="7.456381320953369" fill="url(#master_svg1_1_286)" fill-opacity="1"/><ellipse cx="20.11835765838623" cy="21.340689182281494" rx="15.147929191589355" ry="7.456381320953369" fill="url(#master_svg2_1_287)" fill-opacity="1"/></g><g filter="url(#master_svg3_1_375)"><ellipse cx="20.11835765838623" cy="18.769522190093994" rx="15.147929191589355" ry="7.456381320953369" fill="url(#master_svg4_1_305)" fill-opacity="1"/><ellipse cx="20.11835765838623" cy="18.769522190093994" rx="15.147929191589355" ry="7.456381320953369" fill="url(#master_svg5_1_306)" fill-opacity="1"/><path d="M20.118328466796875,26.225940869140626Q20.490228466796875,26.225940869140626,20.861628466796873,26.216940869140625Q21.233028466796874,26.207940869140625,21.603128466796875,26.190040869140624Q21.973228466796876,26.172040869140623,22.341028466796875,26.145240869140626Q22.708828466796874,26.118340869140624,23.073528466796876,26.082640869140626Q23.438328466796875,26.046940869140627,23.799028466796877,26.002440869140624Q24.159728466796874,25.957940869140625,24.515528466796876,25.904840869140624Q24.871428466796875,25.851740869140627,25.221528466796876,25.790040869140626Q25.571628466796874,25.728340869140624,25.915228466796876,25.658340869140623Q26.258728466796875,25.588240869140627,26.594928466796876,25.510040869140624Q26.931128466796874,25.431740869140626,27.259028466796874,25.345440869140624Q27.587028466796873,25.259140869140623,27.905928466796876,25.165040869140626Q28.224928466796875,25.070940869140625,28.534128466796876,24.969240869140627Q28.843328466796876,24.867540869140626,29.141928466796877,24.758540869140624Q29.440628466796873,24.649540869140623,29.728128466796875,24.533340869140623Q30.015528466796876,24.417240869140628,30.291128466796874,24.294340869140626Q30.566628466796875,24.171440869140625,30.829528466796877,24.041940869140625Q31.092528466796875,23.912540869140624,31.342228466796875,23.776940869140624Q31.591928466796876,23.641340869140627,31.827828466796873,23.499840869140627Q32.063728466796874,23.358340869140626,32.28532846679688,23.211240869140624Q32.506828466796875,23.064240869140626,32.71342846679687,22.912040869140625Q32.92002846679688,22.759840869140625,33.11112846679687,22.602840869140625Q33.30232846679688,22.445840869140625,33.47762846679687,22.284440869140624Q33.65292846679688,22.123040869140624,33.81192846679687,21.957540869140622Q33.97092846679688,21.792040869140624,34.113228466796876,21.622940869140624Q34.255528466796875,21.453840869140627,34.38082846679687,21.281500869140626Q34.50602846679688,21.109160869140624,34.614028466796874,20.933990869140626Q34.721928466796875,20.758830869140624,34.81232846679687,20.581270869140624Q34.90262846679688,20.403720869140624,34.97522846679688,20.224190869140624Q35.047728466796876,20.044660869140625,35.10232846679688,19.863600869140626Q35.15692846679687,19.682540869140624,35.19332846679687,19.500370869140625Q35.229828466796874,19.318210869140625,35.248028466796875,19.135390869140625Q35.26632846679688,18.952560869140626,35.26632846679688,18.769520869140624Q35.26632846679688,18.586480869140626,35.248028466796875,18.403650869140627Q35.229828466796874,18.220830869140624,35.19332846679687,18.038670869140624Q35.15692846679687,17.856510869140624,35.10232846679688,17.675440869140626Q35.047728466796876,17.494380869140624,34.97522846679688,17.314850869140624Q34.90262846679688,17.135330869140624,34.81232846679687,16.957770869140624Q34.721928466796875,16.780210869140625,34.614028466796874,16.605050869140626Q34.50602846679688,16.429890869140625,34.38082846679687,16.257540869140627Q34.255528466796875,16.085200869140625,34.113228466796876,15.916090869140625Q33.97092846679688,15.746980869140625,33.81192846679687,15.581510869140626Q33.65292846679688,15.416040869140625,33.47762846679687,15.254610869140624Q33.30232846679688,15.093180869140625,33.11112846679687,14.936180869140625Q32.92002846679688,14.779170869140625,32.71342846679687,14.626980869140624Q32.506828466796875,14.474780869140625,32.28532846679688,14.327760869140626Q32.063728466796874,14.180740869140624,31.827828466796873,14.039240869140626Q31.591928466796876,13.897750869140625,31.342228466796875,13.762120869140626Q31.092528466796875,13.626490869140625,30.829528466796877,13.497060869140626Q30.566628466796875,13.367630869140624,30.291128466796874,13.244710869140626Q30.015528466796876,13.121780869140625,29.728128466796875,13.005660869140625Q29.440628466796873,12.889540869140625,29.141928466796877,12.780500869140624Q28.843328466796876,12.671460869140624,28.534128466796876,12.569770869140624Q28.224928466796875,12.468070869140625,27.905928466796876,12.373970869140624Q27.587028466796873,12.279866869140625,27.259028466796874,12.193580869140625Q26.931128466796874,12.107294869140626,26.594928466796876,12.029032869140625Q26.258728466796875,11.950771869140626,25.915228466796876,11.880723869140624Q25.571628466796874,11.810675869140624,25.221528466796876,11.749010869140625Q24.871428466796875,11.687344869140626,24.515528466796876,11.634209869140625Q24.159728466796874,11.581074869140625,23.799028466796877,11.536598869140626Q23.438328466796875,11.492122869140625,23.073528466796876,11.456412869140625Q22.708828466796874,11.420702869140625,22.341028466796875,11.393844969140625Q21.973228466796876,11.366986769140626,21.603128466796875,11.349045369140624Q21.233028466796874,11.331103969140624,20.861628466796873,11.322122409140626Q20.490228466796875,11.313140869140625,20.118328466796875,11.313140869140625Q19.746528466796875,11.313140869140625,19.375128466796873,11.322122409140626Q19.003628466796876,11.331103969140624,18.633628466796875,11.349045369140624Q18.263528466796878,11.366986769140626,17.895728466796875,11.393844969140625Q17.527828466796876,11.420702869140625,17.163128466796877,11.456412869140625Q16.798428466796874,11.492122869140625,16.437728466796877,11.536598869140626Q16.077028466796875,11.581074869140625,15.721128466796875,11.634209869140625Q15.365328466796875,11.687344869140626,15.015128466796876,11.749010869140625Q14.665048466796875,11.810675869140624,14.321498466796875,11.880723869140624Q13.977938466796875,11.950771869140626,13.641778466796875,12.029032869140625Q13.305628466796875,12.107294869140626,12.977678466796876,12.193580869140625Q12.649718466796875,12.279866869140625,12.330768466796876,12.373970869140624Q12.011808466796875,12.468070869140625,11.702618466796874,12.569770869140624Q11.393428466796875,12.671460869140624,11.094748466796876,12.780500869140624Q10.796068466796875,12.889540869140625,10.508608466796876,13.005660869140625Q10.221158466796876,13.121780869140625,9.945628466796876,13.244710869140626Q9.670098466796876,13.367630869140624,9.407158466796876,13.497060869140626Q9.144208466796876,13.626490869140625,8.894478466796874,13.762120869140626Q8.644758466796874,13.897750869140625,8.408848466796876,14.039240869140626Q8.172938466796875,14.180740869140624,7.951428466796875,14.327760869140626Q7.729908466796875,14.474780869140625,7.523318466796875,14.626980869140624Q7.316718466796875,14.779170869140625,7.125548466796875,14.936180869140625Q6.934368466796875,15.093180869140625,6.7590784667968755,15.254610869140624Q6.5837784667968755,15.416040869140625,6.424788466796875,15.581510869140626Q6.265798466796875,15.746980869140625,6.123498466796875,15.916090869140625Q5.981188466796875,16.085200869140625,5.855914466796875,16.257540869140627Q5.730638466796875,16.429890869140625,5.622693466796875,16.605050869140626Q5.514747466796875,16.780210869140625,5.424392466796875,16.957770869140624Q5.3340384667968745,17.135330869140624,5.261491466796875,17.314850869140624Q5.188945466796875,17.494380869140624,5.134381466796875,17.675440869140626Q5.079818466796875,17.856510869140624,5.043369866796875,18.038670869140624Q5.006921166796875,18.220830869140624,4.988674766796875,18.403650869140627Q4.970428466796875,18.586480869140626,4.970428466796875,18.769520869140624Q4.970428466796875,18.952560869140626,4.988674766796875,19.135390869140625Q5.006921166796875,19.318210869140625,5.043369866796875,19.500370869140625Q5.079818466796875,19.682540869140624,5.134381466796875,19.863600869140626Q5.188945466796875,20.044660869140625,5.261491466796875,20.224190869140624Q5.3340384667968745,20.403720869140624,5.424392466796875,20.581270869140624Q5.514747466796875,20.758830869140624,5.622693466796875,20.933990869140626Q5.730638466796875,21.109150869140628,5.855914466796875,21.281500869140626Q5.981188466796875,21.453840869140627,6.123498466796875,21.622940869140624Q6.265798466796875,21.792040869140624,6.424788466796875,21.957540869140622Q6.5837784667968755,22.123040869140624,6.7590784667968755,22.284440869140624Q6.934368466796875,22.445840869140625,7.125548466796875,22.602840869140625Q7.316718466796875,22.759840869140625,7.523318466796875,22.912040869140625Q7.729908466796875,23.064240869140626,7.951428466796875,23.211240869140624Q8.172948466796875,23.358340869140626,8.408848466796876,23.499840869140627Q8.644758466796874,23.641340869140627,8.894478466796874,23.776940869140624Q9.144208466796876,23.912540869140624,9.407158466796876,24.041940869140625Q9.670098466796876,24.171440869140625,9.945628466796876,24.294340869140626Q10.221158466796876,24.417240869140628,10.508608466796876,24.533340869140623Q10.796068466796875,24.649540869140623,11.094748466796876,24.758540869140624Q11.393428466796875,24.867540869140626,11.702618466796874,24.969240869140627Q12.011808466796875,25.070940869140625,12.330768466796876,25.165040869140626Q12.649718466796875,25.259140869140623,12.977678466796876,25.345440869140624Q13.305628466796875,25.431740869140626,13.641778466796875,25.510040869140624Q13.977938466796875,25.588240869140627,14.321498466796875,25.658340869140623Q14.665048466796875,25.728340869140624,15.015128466796876,25.790040869140626Q15.365328466796875,25.851740869140627,15.721128466796875,25.904840869140624Q16.077028466796875,25.957940869140625,16.437728466796877,26.002440869140624Q16.798428466796874,26.046940869140627,17.163128466796877,26.082640869140626Q17.527828466796876,26.118340869140624,17.895728466796875,26.145240869140626Q18.263528466796878,26.172040869140623,18.633628466796875,26.190040869140624Q19.003628466796876,26.207940869140625,19.375128466796873,26.216940869140625Q19.746528466796875,26.225940869140626,20.118328466796875,26.225940869140626ZM30.713428466796874,13.733010869140625Q35.00332846679687,15.844650869140626,35.00332846679687,18.769520869140624Q35.00332846679687,21.694340869140625,30.713428466796874,23.806040869140624Q26.331628466796875,25.962940869140624,20.118328466796875,25.962940869140624Q13.905088466796874,25.962940869140624,9.523298466796875,23.806040869140624Q5.2334134667968755,21.694340869140625,5.2334134667968755,18.769520869140624Q5.2334134667968755,15.844660869140625,9.523298466796875,13.733010869140625Q13.905098466796876,11.576125869140625,20.118328466796875,11.576125869140625Q26.331628466796875,11.576125869140625,30.713428466796874,13.733010869140625Z" fill-rule="evenodd" fill="url(#master_svg6_1_308)" fill-opacity="1"/><path d="M20.118328466796875,26.225940869140626Q20.490228466796875,26.225940869140626,20.861628466796873,26.216940869140625Q21.233028466796874,26.207940869140625,21.603128466796875,26.190040869140624Q21.973228466796876,26.172040869140623,22.341028466796875,26.145240869140626Q22.708828466796874,26.118340869140624,23.073528466796876,26.082640869140626Q23.438328466796875,26.046940869140627,23.799028466796877,26.002440869140624Q24.159728466796874,25.957940869140625,24.515528466796876,25.904840869140624Q24.871428466796875,25.851740869140627,25.221528466796876,25.790040869140626Q25.571628466796874,25.728340869140624,25.915228466796876,25.658340869140623Q26.258728466796875,25.588240869140627,26.594928466796876,25.510040869140624Q26.931128466796874,25.431740869140626,27.259028466796874,25.345440869140624Q27.587028466796873,25.259140869140623,27.905928466796876,25.165040869140626Q28.224928466796875,25.070940869140625,28.534128466796876,24.969240869140627Q28.843328466796876,24.867540869140626,29.141928466796877,24.758540869140624Q29.440628466796873,24.649540869140623,29.728128466796875,24.533340869140623Q30.015528466796876,24.417240869140628,30.291128466796874,24.294340869140626Q30.566628466796875,24.171440869140625,30.829528466796877,24.041940869140625Q31.092528466796875,23.912540869140624,31.342228466796875,23.776940869140624Q31.591928466796876,23.641340869140627,31.827828466796873,23.499840869140627Q32.063728466796874,23.358340869140626,32.28532846679688,23.211240869140624Q32.506828466796875,23.064240869140626,32.71342846679687,22.912040869140625Q32.92002846679688,22.759840869140625,33.11112846679687,22.602840869140625Q33.30232846679688,22.445840869140625,33.47762846679687,22.284440869140624Q33.65292846679688,22.123040869140624,33.81192846679687,21.957540869140622Q33.97092846679688,21.792040869140624,34.113228466796876,21.622940869140624Q34.255528466796875,21.453840869140627,34.38082846679687,21.281500869140626Q34.50602846679688,21.109160869140624,34.614028466796874,20.933990869140626Q34.721928466796875,20.758830869140624,34.81232846679687,20.581270869140624Q34.90262846679688,20.403720869140624,34.97522846679688,20.224190869140624Q35.047728466796876,20.044660869140625,35.10232846679688,19.863600869140626Q35.15692846679687,19.682540869140624,35.19332846679687,19.500370869140625Q35.229828466796874,19.318210869140625,35.248028466796875,19.135390869140625Q35.26632846679688,18.952560869140626,35.26632846679688,18.769520869140624Q35.26632846679688,18.586480869140626,35.248028466796875,18.403650869140627Q35.229828466796874,18.220830869140624,35.19332846679687,18.038670869140624Q35.15692846679687,17.856510869140624,35.10232846679688,17.675440869140626Q35.047728466796876,17.494380869140624,34.97522846679688,17.314850869140624Q34.90262846679688,17.135330869140624,34.81232846679687,16.957770869140624Q34.721928466796875,16.780210869140625,34.614028466796874,16.605050869140626Q34.50602846679688,16.429890869140625,34.38082846679687,16.257540869140627Q34.255528466796875,16.085200869140625,34.113228466796876,15.916090869140625Q33.97092846679688,15.746980869140625,33.81192846679687,15.581510869140626Q33.65292846679688,15.416040869140625,33.47762846679687,15.254610869140624Q33.30232846679688,15.093180869140625,33.11112846679687,14.936180869140625Q32.92002846679688,14.779170869140625,32.71342846679687,14.626980869140624Q32.506828466796875,14.474780869140625,32.28532846679688,14.327760869140626Q32.063728466796874,14.180740869140624,31.827828466796873,14.039240869140626Q31.591928466796876,13.897750869140625,31.342228466796875,13.762120869140626Q31.092528466796875,13.626490869140625,30.829528466796877,13.497060869140626Q30.566628466796875,13.367630869140624,30.291128466796874,13.244710869140626Q30.015528466796876,13.121780869140625,29.728128466796875,13.005660869140625Q29.440628466796873,12.889540869140625,29.141928466796877,12.780500869140624Q28.843328466796876,12.671460869140624,28.534128466796876,12.569770869140624Q28.224928466796875,12.468070869140625,27.905928466796876,12.373970869140624Q27.587028466796873,12.279866869140625,27.259028466796874,12.193580869140625Q26.931128466796874,12.107294869140626,26.594928466796876,12.029032869140625Q26.258728466796875,11.950771869140626,25.915228466796876,11.880723869140624Q25.571628466796874,11.810675869140624,25.221528466796876,11.749010869140625Q24.871428466796875,11.687344869140626,24.515528466796876,11.634209869140625Q24.159728466796874,11.581074869140625,23.799028466796877,11.536598869140626Q23.438328466796875,11.492122869140625,23.073528466796876,11.456412869140625Q22.708828466796874,11.420702869140625,22.341028466796875,11.393844969140625Q21.973228466796876,11.366986769140626,21.603128466796875,11.349045369140624Q21.233028466796874,11.331103969140624,20.861628466796873,11.322122409140626Q20.490228466796875,11.313140869140625,20.118328466796875,11.313140869140625Q19.746528466796875,11.313140869140625,19.375128466796873,11.322122409140626Q19.003628466796876,11.331103969140624,18.633628466796875,11.349045369140624Q18.263528466796878,11.366986769140626,17.895728466796875,11.393844969140625Q17.527828466796876,11.420702869140625,17.163128466796877,11.456412869140625Q16.798428466796874,11.492122869140625,16.437728466796877,11.536598869140626Q16.077028466796875,11.581074869140625,15.721128466796875,11.634209869140625Q15.365328466796875,11.687344869140626,15.015128466796876,11.749010869140625Q14.665048466796875,11.810675869140624,14.321498466796875,11.880723869140624Q13.977938466796875,11.950771869140626,13.641778466796875,12.029032869140625Q13.305628466796875,12.107294869140626,12.977678466796876,12.193580869140625Q12.649718466796875,12.279866869140625,12.330768466796876,12.373970869140624Q12.011808466796875,12.468070869140625,11.702618466796874,12.569770869140624Q11.393428466796875,12.671460869140624,11.094748466796876,12.780500869140624Q10.796068466796875,12.889540869140625,10.508608466796876,13.005660869140625Q10.221158466796876,13.121780869140625,9.945628466796876,13.244710869140626Q9.670098466796876,13.367630869140624,9.407158466796876,13.497060869140626Q9.144208466796876,13.626490869140625,8.894478466796874,13.762120869140626Q8.644758466796874,13.897750869140625,8.408848466796876,14.039240869140626Q8.172938466796875,14.180740869140624,7.951428466796875,14.327760869140626Q7.729908466796875,14.474780869140625,7.523318466796875,14.626980869140624Q7.316718466796875,14.779170869140625,7.125548466796875,14.936180869140625Q6.934368466796875,15.093180869140625,6.7590784667968755,15.254610869140624Q6.5837784667968755,15.416040869140625,6.424788466796875,15.581510869140626Q6.265798466796875,15.746980869140625,6.123498466796875,15.916090869140625Q5.981188466796875,16.085200869140625,5.855914466796875,16.257540869140627Q5.730638466796875,16.429890869140625,5.622693466796875,16.605050869140626Q5.514747466796875,16.780210869140625,5.424392466796875,16.957770869140624Q5.3340384667968745,17.135330869140624,5.261491466796875,17.314850869140624Q5.188945466796875,17.494380869140624,5.134381466796875,17.675440869140626Q5.079818466796875,17.856510869140624,5.043369866796875,18.038670869140624Q5.006921166796875,18.220830869140624,4.988674766796875,18.403650869140627Q4.970428466796875,18.586480869140626,4.970428466796875,18.769520869140624Q4.970428466796875,18.952560869140626,4.988674766796875,19.135390869140625Q5.006921166796875,19.318210869140625,5.043369866796875,19.500370869140625Q5.079818466796875,19.682540869140624,5.134381466796875,19.863600869140626Q5.188945466796875,20.044660869140625,5.261491466796875,20.224190869140624Q5.3340384667968745,20.403720869140624,5.424392466796875,20.581270869140624Q5.514747466796875,20.758830869140624,5.622693466796875,20.933990869140626Q5.730638466796875,21.109150869140628,5.855914466796875,21.281500869140626Q5.981188466796875,21.453840869140627,6.123498466796875,21.622940869140624Q6.265798466796875,21.792040869140624,6.424788466796875,21.957540869140622Q6.5837784667968755,22.123040869140624,6.7590784667968755,22.284440869140624Q6.934368466796875,22.445840869140625,7.125548466796875,22.602840869140625Q7.316718466796875,22.759840869140625,7.523318466796875,22.912040869140625Q7.729908466796875,23.064240869140626,7.951428466796875,23.211240869140624Q8.172948466796875,23.358340869140626,8.408848466796876,23.499840869140627Q8.644758466796874,23.641340869140627,8.894478466796874,23.776940869140624Q9.144208466796876,23.912540869140624,9.407158466796876,24.041940869140625Q9.670098466796876,24.171440869140625,9.945628466796876,24.294340869140626Q10.221158466796876,24.417240869140628,10.508608466796876,24.533340869140623Q10.796068466796875,24.649540869140623,11.094748466796876,24.758540869140624Q11.393428466796875,24.867540869140626,11.702618466796874,24.969240869140627Q12.011808466796875,25.070940869140625,12.330768466796876,25.165040869140626Q12.649718466796875,25.259140869140623,12.977678466796876,25.345440869140624Q13.305628466796875,25.431740869140626,13.641778466796875,25.510040869140624Q13.977938466796875,25.588240869140627,14.321498466796875,25.658340869140623Q14.665048466796875,25.728340869140624,15.015128466796876,25.790040869140626Q15.365328466796875,25.851740869140627,15.721128466796875,25.904840869140624Q16.077028466796875,25.957940869140625,16.437728466796877,26.002440869140624Q16.798428466796874,26.046940869140627,17.163128466796877,26.082640869140626Q17.527828466796876,26.118340869140624,17.895728466796875,26.145240869140626Q18.263528466796878,26.172040869140623,18.633628466796875,26.190040869140624Q19.003628466796876,26.207940869140625,19.375128466796873,26.216940869140625Q19.746528466796875,26.225940869140626,20.118328466796875,26.225940869140626ZM30.713428466796874,13.733010869140625Q35.00332846679687,15.844650869140626,35.00332846679687,18.769520869140624Q35.00332846679687,21.694340869140625,30.713428466796874,23.806040869140624Q26.331628466796875,25.962940869140624,20.118328466796875,25.962940869140624Q13.905088466796874,25.962940869140624,9.523298466796875,23.806040869140624Q5.2334134667968755,21.694340869140625,5.2334134667968755,18.769520869140624Q5.2334134667968755,15.844660869140625,9.523298466796875,13.733010869140625Q13.905098466796876,11.576125869140625,20.118328466796875,11.576125869140625Q26.331628466796875,11.576125869140625,30.713428466796874,13.733010869140625Z" fill-rule="evenodd" fill="url(#master_svg7_1_309)" fill-opacity="1"/></g><g><ellipse cx="20.118361473083496" cy="19.155198574066162" rx="9.585799217224121" ry="5.270890712738037" fill="#035255" fill-opacity="1"/><path d="M20.118362255859374,24.426107861328127Q20.353682255859376,24.426107861328127,20.588762255859375,24.419707861328124Q20.823762255859375,24.413407861328125,21.057962255859373,24.400707861328126Q21.292162255859374,24.388007861328127,21.524862255859375,24.369007861328125Q21.757662255859373,24.350007861328123,21.988462255859375,24.324807861328125Q22.219262255859377,24.299607861328127,22.447562255859374,24.268107861328126Q22.675762255859375,24.236707861328124,22.900962255859376,24.199107861328123Q23.126162255859377,24.161607861328125,23.347762255859376,24.118007861328124Q23.569262255859375,24.074407861328126,23.786662255859376,24.024907861328124Q24.004062255859374,23.975307861328126,24.216862255859375,23.920007861328124Q24.429562255859373,23.864707861328124,24.637062255859377,23.803707861328125Q24.844562255859373,23.742707861328125,25.046462255859375,23.676187861328124Q25.248262255859373,23.609667861328127,25.443962255859375,23.537777861328124Q25.639562255859374,23.465897861328123,25.828662255859374,23.388817861328125Q26.017662255859374,23.311737861328126,26.199562255859377,23.229647861328125Q26.381462255859375,23.147567861328127,26.555762255859374,23.060667861328128Q26.730162255859376,22.973777861328124,26.896562255859376,22.882277861328127Q27.062962255859375,22.790787861328127,27.220962255859376,22.694907861328126Q27.378962255859374,22.599037861328124,27.528262255859374,22.499017861328127Q27.677562255859375,22.398987861328123,27.817762255859375,22.295057861328125Q27.957962255859375,22.191137861328123,28.088662255859376,22.083547861328125Q28.219362255859377,21.975957861328126,28.340362255859375,21.864977861328125Q28.461362255859374,21.753987861328124,28.572262255859375,21.639877861328124Q28.683162255859376,21.525767861328127,28.783862255859376,21.408797861328125Q28.884462255859376,21.291827861328123,28.974462255859375,21.172277861328126Q29.064562255859375,21.052737861328126,29.143762255859375,20.930907861328123Q29.223062255859375,20.809077861328124,29.291362255859376,20.685257861328125Q29.359662255859377,20.561437861328123,29.416862255859375,20.435917861328125Q29.474062255859376,20.310407861328123,29.519962255859376,20.183497861328124Q29.565862255859376,20.056587861328126,29.600362255859373,19.928597861328125Q29.634962255859374,19.800607861328125,29.657962255859374,19.671837861328125Q29.681062255859374,19.543067861328126,29.692662255859375,19.413827861328123Q29.704162255859377,19.284587861328127,29.704162255859377,19.155197861328126Q29.704162255859377,19.025807861328126,29.692662255859375,18.896567861328126Q29.681062255859374,18.767327861328127,29.657962255859374,18.638557861328124Q29.634962255859374,18.509787861328125,29.600362255859373,18.381797861328124Q29.565862255859376,18.253807861328127,29.519962255859376,18.126897861328125Q29.474062255859376,17.999987861328126,29.416862255859375,17.874477861328124Q29.359662255859377,17.748957861328126,29.291362255859376,17.625137861328124Q29.223062255859375,17.501317861328126,29.143762255859375,17.379487861328126Q29.064562255859375,17.257657861328124,28.974462255859375,17.138117861328126Q28.884462255859376,17.018567861328126,28.783862255859376,16.901597861328124Q28.683162255859376,16.784627861328126,28.572262255859375,16.670517861328126Q28.461362255859374,16.556407861328125,28.340362255859375,16.445417861328124Q28.219362255859377,16.334437861328126,28.088662255859376,16.226847861328125Q27.957962255859375,16.119257861328126,27.817762255859375,16.015327861328124Q27.677562255859375,15.911407861328126,27.528262255859374,15.811377861328126Q27.378962255859374,15.711357861328125,27.220962255859376,15.615487861328125Q27.062962255859375,15.519607861328126,26.896562255859376,15.428117861328126Q26.730162255859376,15.336617861328126,26.555762255859374,15.249727861328125Q26.381462255859375,15.162827861328125,26.199562255859377,15.080747861328124Q26.017662255859374,14.998657861328125,25.828662255859374,14.921577861328124Q25.639562255859374,14.844499861328124,25.443962255859375,14.772612861328126Q25.248262255859373,14.700725861328126,25.046462255859375,14.634204861328126Q24.844562255859373,14.567683861328124,24.637062255859377,14.506687861328125Q24.429562255859373,14.445692861328125,24.216862255859375,14.390369861328125Q24.004062255859374,14.335046861328125,23.786662255859376,14.285530861328125Q23.569262255859375,14.236013861328125,23.347762255859376,14.192422861328126Q23.126162255859377,14.148831861328125,22.900962255859376,14.111270861328125Q22.675762255859375,14.073709861328124,22.447562255859374,14.042269861328124Q22.219262255859377,14.010829861328125,21.988462255859375,13.985586861328125Q21.757662255859373,13.960343161328124,21.524862255859375,13.941357261328125Q21.292162255859374,13.922371361328125,21.057962255859373,13.909688661328126Q20.823762255859375,13.897005861328125,20.588762255859375,13.890656881328125Q20.353682255859376,13.884307861328125,20.118362255859374,13.884307861328125Q19.883042255859372,13.884307861328125,19.648012255859374,13.890656881328125Q19.412972255859373,13.897005861328125,19.178792255859374,13.909688661328126Q18.944602255859373,13.922371361328125,18.711832255859377,13.941357261328125Q18.479062255859375,13.960343161328124,18.248262255859373,13.985586861328125Q18.017472255859374,14.010829861328125,17.789202255859376,14.042269861328124Q17.560932255859374,14.073709861328124,17.335752255859376,14.111270861328125Q17.110562255859374,14.148831861328125,16.889002255859374,14.192422861328126Q16.667442255859374,14.236013861328125,16.450032255859377,14.285530861328125Q16.232632255859375,14.335046861328125,16.019902255859375,14.390369861328125Q15.807182255859374,14.445692861328125,15.599642255859376,14.506687861328125Q15.392112255859374,14.567683861328124,15.190272255859375,14.634204861328126Q14.988432255859376,14.700725861328126,14.792772255859376,14.772612861328126Q14.597112255859376,14.844499861328124,14.408112255859375,14.921577861328124Q14.219102255859376,14.998657861328125,14.037192255859376,15.080747861328124Q13.855292255859375,15.162827861328125,13.680932255859375,15.249727861328125Q13.506572255859375,15.336617861328126,13.340182255859375,15.428117861328126Q13.173782255859376,15.519607861328126,13.015752255859375,15.615487861328125Q12.857722255859375,15.711357861328125,12.708442255859374,15.811377861328126Q12.559152255859376,15.911407861328126,12.418972255859375,16.015327861328124Q12.278792255859376,16.119257861328126,12.148062255859376,16.226847861328125Q12.017322255859375,16.334437861328126,11.896342255859375,16.445417861328124Q11.775372255859375,16.556407861328125,11.664442255859376,16.670517861328126Q11.553512255859374,16.784627861328126,11.452901255859375,16.901597861328124Q11.352290255859375,17.018567861328126,11.262237255859375,17.138117861328126Q11.172185255859375,17.257657861328124,11.092909255859375,17.379487861328126Q11.013632255859376,17.501317861328126,10.945323255859375,17.625137861328124Q10.877014255859375,17.748957861328126,10.819836255859375,17.874477861328124Q10.762659255859376,17.999987861328126,10.716750255859376,18.126897861328125Q10.670842255859375,18.253807861328127,10.636314255859375,18.381797861328124Q10.601785655859375,18.509787861328125,10.578720455859376,18.638557861328124Q10.555655255859374,18.767327861328127,10.544108755859375,18.896567861328126Q10.532562255859375,19.025807861328126,10.532562255859375,19.155197861328126Q10.532562255859375,19.284587861328127,10.544108755859375,19.413827861328123Q10.555655255859374,19.543067861328126,10.578720455859376,19.671837861328125Q10.601785655859375,19.800607861328125,10.636314255859375,19.928597861328125Q10.670842255859375,20.056587861328126,10.716750255859376,20.183497861328124Q10.762659255859376,20.310407861328123,10.819836255859375,20.435917861328125Q10.877014255859375,20.561437861328123,10.945323255859375,20.685257861328125Q11.013632255859376,20.809077861328124,11.092909255859375,20.930907861328123Q11.172185255859375,21.052737861328126,11.262237255859375,21.172277861328126Q11.352290255859375,21.291827861328123,11.452901255859375,21.408797861328125Q11.553512255859374,21.525767861328127,11.664442255859376,21.639877861328124Q11.775372255859375,21.753987861328124,11.896342255859375,21.864977861328125Q12.017322255859375,21.975957861328126,12.148062255859376,22.083547861328125Q12.278792255859376,22.191137861328123,12.418972255859375,22.295067861328125Q12.559152255859376,22.398987861328123,12.708442255859374,22.499017861328127Q12.857722255859375,22.599037861328124,13.015752255859375,22.694907861328126Q13.173782255859376,22.790787861328127,13.340182255859375,22.882277861328127Q13.506572255859375,22.973777861328124,13.680932255859375,23.060667861328128Q13.855292255859375,23.147567861328127,14.037192255859376,23.229647861328125Q14.219102255859376,23.311737861328126,14.408112255859375,23.388817861328125Q14.597112255859376,23.465897861328123,14.792772255859376,23.537777861328124Q14.988432255859376,23.609667861328127,15.190272255859375,23.676187861328124Q15.392112255859374,23.742707861328125,15.599642255859376,23.803707861328125Q15.807182255859374,23.864707861328124,16.019902255859375,23.920007861328124Q16.232632255859375,23.975307861328126,16.450032255859377,24.024907861328124Q16.667442255859374,24.074407861328126,16.889002255859374,24.118007861328124Q17.110562255859374,24.161607861328125,17.335752255859376,24.199107861328123Q17.560932255859374,24.236707861328124,17.789202255859376,24.268107861328126Q18.017472255859374,24.299607861328127,18.248262255859373,24.324807861328125Q18.479062255859375,24.350007861328123,18.711832255859377,24.369007861328125Q18.944602255859373,24.388007861328127,19.178792255859374,24.400707861328126Q19.412972255859373,24.413407861328125,19.648012255859374,24.419707861328124Q19.883042255859372,24.426107861328127,20.118362255859374,24.426107861328127ZM26.769862255859376,15.658557861328125Q29.441162255859375,17.127437861328126,29.441162255859375,19.155197861328126Q29.441162255859375,21.182957861328127,26.769862255859376,22.651837861328126Q24.021362255859373,24.163107861328125,20.118362255859374,24.163107861328125Q16.215322255859377,24.163107861328125,13.466892255859374,22.651837861328126Q10.795547255859375,21.182967861328123,10.795547255859375,19.155197861328126Q10.795547255859375,17.127437861328126,13.466892255859374,15.658557861328125Q16.215322255859377,14.147292861328125,20.118362255859374,14.147292861328125Q24.021362255859373,14.147292861328125,26.769862255859376,15.658557861328125Z" fill-rule="evenodd" fill="#09576C" fill-opacity="1"/></g><g transform="matrix(1,0,0,-1,0,56.565673828125)"><path d="M20.118336005859376,28.2828369140625L21.143216005859376,29.4398569140625L19.093456005859377,29.4398569140625L20.118336005859376,28.2828369140625Z" fill="#00DBDB" fill-opacity="1"/></g><g><g transform="matrix(0,1,1,0,-19.190054416656494,19.190054416656494)" style="opacity:0.5;" filter="url(#master_svg8_1_362)"><path d="M2.7934259710388183,21.083572387695312L3.572767971038818,22.503692387695313L2.0140829710388184,22.503692387695313L2.7934259710388183,21.083572387695312Z" fill="#00BCAF" fill-opacity="1"/></g><g transform="matrix(0,1,1,0,-17.133123874664307,17.133123874664307)"><path d="M2.6648679710388183,19.026641845703125L3.332877971038818,20.446761845703126L1.9968589710388183,20.446761845703126L2.6648679710388183,19.026641845703125Z" fill="#00BCAF" fill-opacity="1"/></g></g><g transform="matrix(-1,0,0,1,75.73968505859375,0)"><g transform="matrix(0,1,1,0,16.786270141601562,-16.786270141601562)" style="opacity:0.5;" filter="url(#master_svg9_1_365)"><path d="M38.76975052929688,21.083572387695312L39.54909252929688,22.503692387695313L37.990407529296874,22.503692387695313L38.76975052929688,21.083572387695312Z" fill="#00BCAF" fill-opacity="1"/></g><g transform="matrix(0,1,1,0,18.84320068359375,-18.84320068359375)"><path d="M38.64119252929687,19.026641845703125L39.309202529296876,20.446761845703126L37.973183529296875,20.446761845703126L38.64119252929687,19.026641845703125Z" fill="#00BCAF" fill-opacity="1"/></g></g><g transform="matrix(1,0,0,-1,0,62.22222900390625)" style="opacity:0.30000001192092896;"><path d="M20.118336005859376,31.111114501953125L21.143216005859376,32.26813450195313L19.093456005859377,32.26813450195313L20.118336005859376,31.111114501953125Z" fill="#00BCAF" fill-opacity="1"/></g><g><path d="M5.20709228515625,0L9.58579228515625,18.3838Q11.834312285156251,22.6263,19.99999228515625,22.6263Q28.16569228515625,22.6263,30.53249228515625,18.3838L35.266292285156254,0L5.20709228515625,0Z" fill="url(#master_svga_1_293)" fill-opacity="1"/></g><g><path d="M5.55409195703125,1.7016782896484375Q5.55048095703125,1.6866781896484375,5.55048095703125,1.6712493896484375Q5.55048095703125,1.6453907896484374,5.56037695703125,1.6215005896484376Q5.57027195703125,1.5976102896484374,5.58855705703125,1.5793254896484374Q5.60684185703125,1.5610403896484375,5.63073215703125,1.5511453896484375Q5.65462235703125,1.5412493896484376,5.68048095703125,1.5412493896484376Q5.72553765703125,1.5412493896484376,5.76093045703125,1.5691323896484375Q5.79632295703125,1.5970153896484376,5.80686995703125,1.6408204896484375L5.80832095703125,1.6404710896484376L9.83199095703125,18.353049389648437L9.83054095703125,18.353349389648436Q9.83415095703125,18.368449389648436,9.83415095703125,18.383849389648436Q9.83415095703125,18.409649389648436,9.82425095703125,18.433549389648437Q9.814360957031251,18.45744938964844,9.796070957031251,18.47574938964844Q9.77779095703125,18.49404938964844,9.753900957031249,18.503949389648437Q9.73001095703125,18.51384938964844,9.70415095703125,18.51384938964844Q9.65909095703125,18.51384938964844,9.62370095703125,18.485949389648436Q9.58831095703125,18.458049389648437,9.57776095703125,18.414249389648436L9.57631095703125,18.41464938964844L5.55264095703125,1.7020276896484374L5.55409195703125,1.7016782896484375Z" fill-rule="evenodd" fill="url(#master_svgb_1_279)" fill-opacity="1"/></g><g transform="matrix(-1,0,0,1,69.1124267578125,0)"><path d="M34.42982437890625,1.7016782896484375Q34.42621337890625,1.6866781896484375,34.42621337890625,1.6712493896484375Q34.42621337890625,1.6453907896484374,34.43610937890625,1.6215005896484376Q34.44600437890625,1.5976102896484374,34.46428947890625,1.5793254896484374Q34.48257427890625,1.5610403896484375,34.50646457890625,1.5511453896484375Q34.53035477890625,1.5412493896484376,34.55621337890625,1.5412493896484376Q34.60127007890625,1.5412493896484376,34.63666287890625,1.5691323896484375Q34.67205537890625,1.5970153896484376,34.68260237890625,1.6408204896484375L34.68405337890625,1.6404710896484376L38.70772337890625,18.353049389648437L38.706273378906246,18.353349389648436Q38.70988337890625,18.368449389648436,38.70988337890625,18.383849389648436Q38.70988337890625,18.409649389648436,38.69998337890625,18.433549389648437Q38.69009337890625,18.45744938964844,38.67180337890625,18.47574938964844Q38.65352337890625,18.49404938964844,38.62963337890625,18.503949389648437Q38.60574337890625,18.51384938964844,38.57988337890625,18.51384938964844Q38.53482337890625,18.51384938964844,38.49943337890625,18.485949389648436Q38.46404337890625,18.458049389648437,38.45349337890625,18.414249389648436L38.452043378906254,18.41464938964844L34.42837337890625,1.7020276896484374L34.42982437890625,1.7016782896484375Z" fill-rule="evenodd" fill="url(#master_svgc_1_279)" fill-opacity="1"/></g><g filter="url(#master_svgd_1_363)"><ellipse cx="20.118388175964355" cy="17.612489223480225" rx="10.65088939666748" ry="5.270890712738037" fill="url(#master_svge_1_286)" fill-opacity="1"/><ellipse cx="20.118388175964355" cy="17.612489223480225" rx="10.65088939666748" ry="5.270890712738037" fill="url(#master_svgf_1_287)" fill-opacity="1"/><path d="M20.118398779296875,22.88339851074219Q20.379898779296873,22.88339851074219,20.640998779296876,22.876998510742187Q20.902198779296874,22.870698510742187,21.162398779296876,22.85799851074219Q21.422598779296877,22.84529851074219,21.681198779296874,22.826298510742188Q21.939798779296876,22.807298510742186,22.196298779296875,22.782098510742188Q22.452698779296874,22.75689851074219,22.706298779296873,22.72539851074219Q22.959998779296875,22.693998510742187,23.210198779296874,22.656398510742186Q23.460398779296874,22.618898510742188,23.706598779296876,22.575298510742186Q23.952698779296874,22.53169851074219,24.194298779296876,22.482198510742187Q24.435898779296878,22.43259851074219,24.672198779296878,22.377298510742186Q24.908598779296874,22.321998510742187,25.139198779296876,22.260998510742187Q25.369798779296875,22.199998510742187,25.593998779296875,22.133478510742187Q25.818298779296875,22.06695851074219,26.035698779296876,21.995068510742186Q26.253098779296874,21.923188510742186,26.463098779296875,21.846108510742187Q26.673098779296875,21.76902851074219,26.875198779296873,21.686938510742188Q27.077398779296875,21.60485851074219,27.271098779296874,21.51795851074219Q27.464798779296874,21.431068510742186,27.649698779296877,21.33956851074219Q27.834598779296876,21.24807851074219,28.010198779296875,21.15219851074219Q28.185798779296874,21.056328510742187,28.351598779296875,20.95630851074219Q28.517498779296876,20.856278510742186,28.673298779296875,20.752348510742188Q28.828998779296874,20.648428510742185,28.974298779296873,20.540838510742187Q29.119498779296876,20.43324851074219,29.253998779296875,20.322268510742187Q29.388398779296875,20.211278510742186,29.511598779296875,20.097168510742186Q29.634898779296876,19.98305851074219,29.746698779296874,19.866088510742188Q29.858498779296873,19.749118510742186,29.958498779296875,19.62956851074219Q30.058598779296876,19.51002851074219,30.146698779296877,19.388198510742185Q30.234798779296874,19.266368510742186,30.310698779296875,19.142548510742188Q30.386598779296875,19.018728510742186,30.450098779296876,18.893208510742188Q30.513598779296874,18.767698510742186,30.564598779296876,18.640788510742187Q30.615598779296874,18.513878510742188,30.653998779296874,18.385888510742188Q30.692398779296877,18.257898510742187,30.717998779296874,18.129128510742188Q30.743598779296875,18.00035851074219,30.756398779296877,17.871118510742185Q30.769298779296875,17.74187851074219,30.769298779296875,17.61248851074219Q30.769298779296875,17.483098510742188,30.756398779296877,17.35385851074219Q30.743598779296875,17.22461851074219,30.717998779296874,17.095848510742186Q30.692398779296877,16.967078510742187,30.653998779296874,16.839088510742187Q30.615598779296874,16.71109851074219,30.564598779296876,16.584188510742187Q30.513598779296874,16.45727851074219,30.450098779296876,16.331768510742187Q30.386598779296875,16.20624851074219,30.310698779296875,16.082428510742186Q30.234798779296874,15.958608510742188,30.146698779296877,15.836778510742187Q30.058598779296876,15.714948510742188,29.958498779296875,15.595408510742187Q29.858498779296873,15.475858510742187,29.746698779296874,15.358888510742187Q29.634898779296876,15.241918510742188,29.511598779296875,15.127808510742188Q29.388398779296875,15.013698510742188,29.253998779296875,14.902708510742187Q29.119498779296876,14.791728510742187,28.974298779296873,14.684138510742187Q28.828998779296874,14.576548510742187,28.673298779296875,14.472618510742187Q28.517498779296876,14.368698510742188,28.351598779296875,14.268668510742188Q28.185798779296874,14.168648510742187,28.010198779296875,14.072778510742188Q27.834598779296876,13.976898510742188,27.649698779296877,13.885408510742188Q27.464798779296874,13.793908510742188,27.271098779296874,13.707018510742188Q27.077398779296875,13.620118510742188,26.875198779296873,13.538038510742187Q26.673098779296875,13.455948510742187,26.463098779296875,13.378868510742187Q26.253098779296874,13.301790510742187,26.035698779296876,13.229903510742188Q25.818298779296875,13.158016510742188,25.593998779296875,13.091495510742188Q25.369798779296875,13.024974510742187,25.139198779296876,12.963978510742187Q24.908598779296874,12.902983510742187,24.672198779296878,12.847660510742188Q24.435898779296878,12.792337510742188,24.194298779296876,12.742821510742187Q23.952698779296874,12.693304510742188,23.706598779296876,12.649713510742188Q23.460398779296874,12.606122510742187,23.210198779296874,12.568561510742187Q22.959998779296875,12.531000510742187,22.706298779296873,12.499560510742187Q22.452698779296874,12.468120510742187,22.196298779296875,12.442877510742187Q21.939798779296876,12.417633810742187,21.681198779296874,12.398647910742188Q21.422598779296877,12.379662010742187,21.162398779296876,12.366979310742188Q20.902198779296874,12.354296510742188,20.640998779296876,12.347947530742188Q20.379898779296873,12.341598510742188,20.118398779296875,12.341598510742188Q19.856898779296877,12.341598510742188,19.595798779296874,12.347947530742188Q19.334628779296875,12.354296510742188,19.074418779296877,12.366979310742188Q18.814208779296877,12.379662010742187,18.555578779296873,12.398647910742188Q18.296948779296876,12.417633810742187,18.040498779296875,12.442877510742187Q17.784058779296878,12.468120510742187,17.530438779296873,12.499560510742187Q17.276808779296875,12.531000510742187,17.026598779296876,12.568561510742187Q16.776388779296873,12.606122510742187,16.530208779296874,12.649713510742188Q16.284028779296875,12.693304510742188,16.042468779296875,12.742821510742187Q15.800908779296876,12.792337510742188,15.564548779296874,12.847660510742188Q15.328188779296875,12.902983510742187,15.097598779296874,12.963978510742187Q14.866998779296875,13.024974510742187,14.642738779296874,13.091495510742188Q14.418468779296875,13.158016510742188,14.201068779296875,13.229903510742188Q13.983668779296874,13.301790510742187,13.773658779296875,13.378868510742187Q13.563648779296875,13.455948510742187,13.361538779296875,13.538038510742187Q13.159418779296875,13.620118510742188,12.965688779296876,13.707018510742188Q12.771958779296876,13.793908510742188,12.587068779296875,13.885408510742188Q12.402188779296875,13.976898510742188,12.226598779296875,14.072778510742188Q12.051008779296875,14.168648510742187,11.885138779296875,14.268668510742188Q11.719268779296875,14.368698510742188,11.563508779296875,14.472618510742187Q11.407758779296875,14.576548510742187,11.262498779296875,14.684138510742187Q11.117238779296875,14.791728510742187,10.982818779296874,14.902708510742187Q10.848398779296875,15.013698510742188,10.725138779296875,15.127808510742188Q10.601888779296875,15.241918510742188,10.490098779296876,15.358888510742187Q10.378307779296875,15.475858510742187,10.278249779296875,15.595408510742187Q10.178190779296875,15.714948510742188,10.090106779296875,15.836778510742187Q10.002021779296875,15.958608510742188,9.926122779296875,16.082428510742186Q9.850223779296876,16.20624851074219,9.786692779296875,16.331768510742187Q9.723161779296875,16.45727851074219,9.672152779296875,16.584188510742187Q9.621143779296874,16.71109851074219,9.582778779296875,16.839088510742187Q9.544413779296875,16.967078510742187,9.518785679296874,17.095848510742186Q9.493157679296875,17.22461851074219,9.480328279296875,17.35385851074219Q9.467498779296875,17.483098510742188,9.467498779296875,17.61248851074219Q9.467498779296875,17.74187851074219,9.480328279296875,17.871118510742185Q9.493157679296875,18.00035851074219,9.518785679296874,18.129128510742188Q9.544413779296875,18.257898510742187,9.582778779296875,18.385888510742188Q9.621143779296874,18.513878510742188,9.672152779296875,18.640788510742187Q9.723161779296875,18.767698510742186,9.786692779296875,18.893208510742188Q9.850223779296876,19.018728510742186,9.926122779296875,19.142548510742188Q10.002021779296875,19.266368510742186,10.090106779296875,19.388198510742185Q10.178190779296875,19.51002851074219,10.278249779296875,19.62956851074219Q10.378307779296875,19.749118510742186,10.490098779296876,19.866088510742188Q10.601888779296875,19.98305851074219,10.725138779296875,20.097168510742186Q10.848398779296875,20.211278510742186,10.982818779296874,20.322268510742187Q11.117238779296875,20.43324851074219,11.262498779296875,20.540838510742187Q11.407758779296875,20.648428510742185,11.563508779296875,20.752358510742187Q11.719268779296875,20.856278510742186,11.885138779296875,20.95630851074219Q12.051008779296875,21.056328510742187,12.226598779296875,21.15219851074219Q12.402188779296875,21.24807851074219,12.587068779296875,21.33956851074219Q12.771958779296876,21.431068510742186,12.965688779296876,21.51795851074219Q13.159418779296875,21.60485851074219,13.361538779296875,21.686938510742188Q13.563648779296875,21.76902851074219,13.773658779296875,21.846108510742187Q13.983668779296874,21.923188510742186,14.201068779296875,21.995068510742186Q14.418468779296875,22.06695851074219,14.642738779296874,22.133478510742187Q14.866998779296875,22.199998510742187,15.097598779296874,22.260998510742187Q15.328188779296875,22.321998510742187,15.564548779296874,22.377298510742186Q15.800908779296876,22.43259851074219,16.042468779296875,22.482198510742187Q16.284028779296875,22.53169851074219,16.530208779296874,22.575298510742186Q16.776388779296873,22.618898510742188,17.026598779296876,22.656398510742186Q17.276808779296875,22.693998510742187,17.530438779296873,22.72539851074219Q17.784058779296878,22.75689851074219,18.040498779296875,22.782098510742188Q18.296948779296876,22.807298510742186,18.555578779296873,22.826298510742188Q18.814208779296877,22.84529851074219,19.074418779296877,22.85799851074219Q19.334628779296875,22.870698510742187,19.595798779296874,22.876998510742187Q19.856898779296877,22.88339851074219,20.118398779296875,22.88339851074219ZM27.533098779296875,14.121108510742188Q30.506298779296873,15.592498510742187,30.506298779296873,17.61248851074219Q30.506298779296873,19.63247851074219,27.533098779296875,21.10386851074219Q24.468598779296876,22.620398510742188,20.118398779296875,22.620398510742188Q15.768148779296876,22.620398510742188,12.703718779296874,21.10386851074219Q9.730483779296875,19.63247851074219,9.730483779296875,17.61248851074219Q9.730483779296875,15.592498510742187,12.703718779296874,14.121108510742188Q15.768158779296876,12.604583510742188,20.118398779296875,12.604583510742188Q24.468598779296876,12.604583510742188,27.533098779296875,14.121108510742188Z" fill-rule="evenodd" fill="#15D3F0" fill-opacity="1"/></g><g><path d="M19.952178310546877,5.509155C19.979128310546876,5.506117,20.004648310546877,5.4954979999999995,20.025808310546875,5.478533C20.111298310546875,5.415987,20.190898310546874,5.345764,20.263618310546875,5.268738C20.381538310546876,5.158628,20.500128310546874,5.0791406,20.618698310546876,5.0289722C20.736628310546877,4.9788039,20.894298310546876,4.99378923,21.091718310546874,5.0739283C21.179458310546874,5.0979097,21.260558310546877,5.141584,21.328878310546877,5.20163L21.498278310546876,5.35865C21.553008310546875,5.408818,21.612298310546876,5.451168,21.676148310546875,5.486351C21.740648310546874,5.5208829999999995,21.822088310546874,5.538474,21.920478310546876,5.538474C22.018858310546875,5.538474,22.102908310546873,5.523489,22.171968310546873,5.493518C22.241028310546874,5.463547,22.307488310546873,5.436183,22.371988310546875,5.411424C22.433978310546877,5.387137,22.498428310546874,5.36966,22.564188310546875,5.359301C22.641878310546875,5.350715,22.720498310546876,5.360765,22.793538310546875,5.388621C22.891918310546878,5.429016,22.958378310546877,5.486351,22.992908310546873,5.561278C23.027308310546875,5.63367,23.037808310546875,5.715127,23.022878310546876,5.793877C23.005178310546874,5.880179,22.969678310546875,5.961841,22.918628310546875,6.03364C22.866388310546874,6.11169,22.798498310546876,6.17803,22.719258310546877,6.2284500000000005C22.557178310546874,6.3266100000000005,22.412348310546875,6.45076,22.290548310546875,6.59592C22.128578310546875,6.80164,21.975538310546874,7.01424,21.831868310546874,7.2331199999999995C21.772578310546876,7.32303,21.718498310546874,7.41295,21.668978310546876,7.50286C21.609688310546876,7.61297,21.545188310546877,7.71787,21.476778310546877,7.817550000000001L18.413248310546876,7.817550000000001C18.344188310546876,7.6976700000000005,18.275128310546876,7.583,18.206058310546876,7.47224C18.145468310546875,7.370150000000001,18.081358310546875,7.27018,18.013858310546876,7.17253C17.952318310546875,7.08412,17.893008310546875,6.99418,17.835988310546874,6.9027899999999995C17.741488310546874,6.75753,17.629928310546873,6.6241,17.503708310546877,6.50535C17.387908310546877,6.39709,17.266798310546875,6.29467,17.140798310546874,6.19848C17.013178310546873,6.10944,16.919298310546875,5.979983,16.874318310546876,5.831014C16.825458310546875,5.675948,16.869758310546874,5.543686,17.007888310546875,5.433576C17.076038310546874,5.383839,17.160778310546874,5.362362,17.244388310546874,5.373635C17.332998310546873,5.38406,17.426818310546874,5.403606,17.525208310546876,5.433576C17.624238310546875,5.463547,17.720668310546877,5.493518,17.813838310546874,5.523488C17.897108310546876,5.552967,17.987038310546875,5.558164,18.073148310546877,5.538474C18.211268310546874,5.509155,18.314218310546874,5.457032,18.383928310546874,5.381454C18.452998310546874,5.306527,18.570918310546876,5.214009,18.739018310546875,5.103899C18.866678310546874,5.0239994,19.019508310546875,4.9945009,19.167728310546874,5.0211538000000004C19.325398310546873,5.0465637,19.443978310546875,5.0993382,19.522818310546874,5.178826C19.561908310546876,5.228994,19.604258310546875,5.271344,19.648568310546874,5.306527C19.692868310546874,5.341058,19.739778310546875,5.373635,19.789298310546876,5.4042580000000005C19.838808310546874,5.44335,19.892888310546873,5.478533,19.952178310546877,5.508504L19.952178310546877,5.509155ZM21.624028310546876,8.50753C21.741948310546874,8.667159999999999,21.890508310546874,8.84242,22.067718310546873,9.03202C22.215618310546876,9.201419999999999,22.398048310546876,9.394269999999999,22.615008310546877,9.60928C22.831978310546873,9.824290000000001,23.084118310546877,10.05167,23.369488310546878,10.29144C23.606648310546873,10.50123,23.850328310546875,10.74882,24.101818310546875,11.034189999999999C24.353968310546875,11.31826,24.572878310546876,11.65054,24.760528310546874,12.03104C24.948118310546874,12.41023,25.078518310546876,12.84742,25.152718310546874,13.34259C25.226418310546876,13.83775,25.214018310546876,14.38961,25.115618310546875,14.99944C25.026818310546876,15.4992,24.848918310546875,15.979,24.590468310546875,16.4159C24.322508310546873,16.8679,23.968048310546877,17.262700000000002,23.547358310546876,17.5776C23.113438310546876,17.907899999999998,22.598068310546875,18.1705,22.001258310546874,18.365299999999998C21.404458310546875,18.5601,20.726208310546873,18.6572,19.966508310546875,18.6572C19.187278310546876,18.6572,18.497298310546874,18.545099999999998,17.895278310546875,18.3203C17.293908310546875,18.094900000000003,16.783098310546876,17.803,16.364168310546876,17.442700000000002C15.961768310546875,17.1034,15.623474310546875,16.6948,15.365357310546875,16.2361C15.130462310546875,15.8238,14.965351310546875,15.3756,14.876704810546874,14.90953C14.788657210546875,14.44459,14.776336310546874,13.96848,14.840218710546875,13.49961C14.957971310546874,12.644020000000001,15.294351310546874,11.83325,15.816868310546875,11.1456C16.060478310546873,10.82436,16.335478310546875,10.52819,16.637808310546873,10.26147C16.894518310546875,10.031469999999999,17.126458310546873,9.81386,17.332998310546873,9.60928C17.540188310546874,9.40404,17.712848310546875,9.21705,17.850968310546875,9.047C18.018418310546874,8.8574,18.166968310546874,8.677579999999999,18.294668310546875,8.50753L21.624028310546876,8.50753ZM20.055128310546877,13.10999L19.655078310546877,12.70538L19.344948310546876,12.39069C19.272218310546876,12.318999999999999,19.203068310546875,12.24377,19.137758310546875,12.16526C19.046218310546877,12.088429999999999,18.940688310546875,12.03002,18.826978310546874,11.99325C18.712258310546876,11.94456,18.579148310546874,11.978110000000001,18.501208310546875,12.07535C18.423018310546876,12.18611,18.402828310546873,12.29296,18.442568310546875,12.39786C18.481658310546877,12.502749999999999,18.525968310546876,12.5855,18.575478310546874,12.64544L18.797008310546875,12.85524L19.152098310546876,13.24485C19.299988310546876,13.40513,19.462878310546877,13.57518,19.640748310546876,13.75501L19.625758310546875,14.0697L18.620438310546874,14.0697C18.532428310546877,14.06925,18.448628310546876,14.10734,18.391098310546873,14.17395C18.331058310546876,14.23382,18.296498310546873,14.3146,18.294668310546875,14.39938C18.294668310546875,14.47952,18.324638310546874,14.54923,18.383928310546874,14.60917C18.442568310546875,14.66912,18.522058310546875,14.69909,18.620438310546874,14.69909L19.626408310546875,14.69909L19.626408310546875,15.2242L18.620438310546874,15.2242C18.536488310546876,15.2224,18.454818310546877,15.2516,18.391098310546873,15.3063C18.327278310546873,15.3602,18.291738310546876,15.4404,18.294668310546875,15.5239C18.283888310546875,15.601,18.314918310546876,15.6779,18.376108310546876,15.7259C18.444608310546876,15.7826,18.531598310546876,15.812,18.620438310546874,15.8087L19.626408310546875,15.8087L19.626408310546875,16.1084C19.636188310546874,16.2484,19.680488310546874,16.3462,19.759328310546877,16.4009C19.847128310546875,16.4587,19.950758310546874,16.4876,20.055778310546877,16.4836C20.164838310546877,16.4972,20.273368310546875,16.4548,20.344408310546875,16.3709C20.412518310546876,16.3001,20.451978310546874,16.2066,20.455168310546874,16.1084L20.455168310546874,15.8087L21.491108310546874,15.8087C21.577328310546875,15.8121,21.662498310546873,15.7887,21.734788310546875,15.7415C21.799288310546874,15.6959,21.825998310546876,15.6243,21.816228310546876,15.5239C21.816228310546876,15.3141,21.678098310546876,15.2092,21.401848310546875,15.2092L20.455168310546874,15.2092L20.470148310546875,14.69909L21.431818310546873,14.6841C21.569948310546874,14.69452,21.668328310546876,14.66651,21.727618310546873,14.60201C21.786258310546874,14.53685,21.816228310546876,14.45932,21.816228310546876,14.36941C21.815118310546875,14.28675,21.780288310546876,14.20814,21.719798310546874,14.15179C21.655948310546876,14.08664,21.554958310546876,14.05406,21.416838310546876,14.05406L20.455168310546874,14.05406L20.455168310546874,13.76999C20.622608310546873,13.60972,20.775728310546874,13.45465,20.913848310546875,13.3048C21.031778310546876,13.18491,21.150358310546874,13.06243,21.268938310546876,12.93733C21.386868310546873,12.81289,21.476128310546876,12.72493,21.535418310546873,12.67541C21.762148310546877,12.47539,21.811018310546874,12.30013,21.683318310546873,12.150269999999999C21.621928310546874,12.06405,21.522008310546873,12.0136,21.416188310546875,12.0154C21.306138310546874,12.01637,21.200588310546877,12.059239999999999,21.121038310546876,12.135290000000001C20.915298310546873,12.311309999999999,20.713068310546873,12.491389999999999,20.514458310546875,12.67541C20.376328310546874,12.80572,20.223218310546876,12.95036,20.055778310546877,13.10999L20.055128310546877,13.10999Z" fill="url(#master_svgg_1_267)" fill-opacity="1"/></g></g></svg>